<svg width="98" height="158" viewBox="0 0 98 158" fill="none" xmlns="http://www.w3.org/2000/svg">
<g filter="url(#filter0_d_1020_10)">
<path d="M4 10C4 4.47715 8.47715 0 14 0L84 0C89.5228 0 94 4.47715 94 10L94 140C94 145.523 89.5228 150 84 150H14C8.47715 150 4 145.523 4 140L4 10Z" fill="#D9D9D9"/>
<path d="M14 0.5L84 0.5C89.2467 0.5 93.5 4.7533 93.5 10L93.5 140C93.5 145.247 89.2467 149.5 84 149.5H14C8.7533 149.5 4.5 145.247 4.5 140L4.5 10C4.5 4.7533 8.7533 0.5 14 0.5Z" stroke="black"/>
</g>
<defs>
<filter id="filter0_d_1020_10" x="0" y="0" width="98" height="158" filterUnits="userSpaceOnUse" color-interpolation-filters="sRGB">
<feFlood flood-opacity="0" result="BackgroundImageFix"/>
<feColorMatrix in="SourceAlpha" type="matrix" values="0 0 0 0 0 0 0 0 0 0 0 0 0 0 0 0 0 0 127 0" result="hardAlpha"/>
<feOffset dy="4"/>
<feGaussianBlur stdDeviation="2"/>
<feComposite in2="hardAlpha" operator="out"/>
<feColorMatrix type="matrix" values="0 0 0 0 0 0 0 0 0 0 0 0 0 0 0 0 0 0 0.25 0"/>
<feBlend mode="normal" in2="BackgroundImageFix" result="effect1_dropShadow_1020_10"/>
<feBlend mode="normal" in="SourceGraphic" in2="effect1_dropShadow_1020_10" result="shape"/>
</filter>
</defs>
</svg>
