<svg width="158" height="158" viewBox="0 0 158 158" fill="none" xmlns="http://www.w3.org/2000/svg">
<g filter="url(#filter0_d_1020_10)">
<path d="M4 10C4 4.47715 8.47715 0 14 0L144 0C149.523 0 154 4.47715 154 10V140C154 145.523 149.523 150 144 150L14 150C8.47715 150 4 145.523 4 140L4 10Z" fill="#D9D9D9"/>
<path d="M14 0.5L144 0.5C149.247 0.500001 153.5 4.7533 153.5 10V140C153.5 145.247 149.247 149.5 144 149.5L14 149.5C8.7533 149.5 4.5 145.247 4.5 140L4.5 10C4.5 4.7533 8.7533 0.5 14 0.5Z" stroke="black"/>
</g>
<defs>
<filter id="filter0_d_1020_10" x="0" y="0" width="158" height="158" filterUnits="userSpaceOnUse" color-interpolation-filters="sRGB">
<feFlood flood-opacity="0" result="BackgroundImageFix"/>
<feColorMatrix in="SourceAlpha" type="matrix" values="0 0 0 0 0 0 0 0 0 0 0 0 0 0 0 0 0 0 127 0" result="hardAlpha"/>
<feOffset dy="4"/>
<feGaussianBlur stdDeviation="2"/>
<feComposite in2="hardAlpha" operator="out"/>
<feColorMatrix type="matrix" values="0 0 0 0 0 0 0 0 0 0 0 0 0 0 0 0 0 0 0.25 0"/>
<feBlend mode="normal" in2="BackgroundImageFix" result="effect1_dropShadow_1020_10"/>
<feBlend mode="normal" in="SourceGraphic" in2="effect1_dropShadow_1020_10" result="shape"/>
</filter>
</defs>
</svg>
